<?xml version="1.0" encoding="utf-8"?>
<!-- Generator: Adobe Illustrator 16.0.0, SVG Export Plug-In . SVG Version: 6.00 Build 0)  -->
<!DOCTYPE svg PUBLIC "-//W3C//DTD SVG 1.1//EN" "http://www.w3.org/Graphics/SVG/1.1/DTD/svg11.dtd">
<svg version="1.1" id="Capa_1" xmlns="http://www.w3.org/2000/svg" xmlns:xlink="http://www.w3.org/1999/xlink" x="0px" y="0px"
	 width="1200px" height="1200px" viewBox="0 0 1200 1200" enable-background="new 0 0 1200 1200" xml:space="preserve">
<g>
	<g>
		<polygon fill="#FFDE00" points="910.863,463.394 622.127,463.251 899.26,84.893 794.848,84.893 625.977,84.893 521.566,84.893 
			262.338,646.631 511.264,646.733 330.514,912.306 542.59,912.381 459.369,1044.916 844.092,813.832 581.652,809.43 		"/>
		<path fill="#3A3A3A" d="M899.26,84.893L622.127,463.251l288.736,0.143L581.652,809.43l262.439,4.402l-384.723,231.084
			l83.221-132.535l-212.076-0.075l180.75-265.572l-248.926-0.103L521.566,84.893h104.41h168.871H899.26 M968.068,50H899.26H794.848
			H625.977h-104.41h-22.324l-9.355,20.271L230.658,632.013l-22.838,49.489l54.504,0.021l183.008,0.075L301.668,892.673
			l-37.093,54.505l65.924,0.021l148.995,0.055l-49.674,79.106L352.186,1150l125.146-75.174l384.723-231.084l104.479-62.751
			l-121.855-2.044l-182.943-3.074l274.406-288.43l56.039-58.9l-81.295-0.041l-219.977-0.109l236.494-322.882L968.068,50L968.068,50z
			"/>
	</g>
	<g>
		<polygon fill="#FFF19F" points="344.933,912.306 554.57,646.733 305.654,646.631 625.977,84.893 521.566,84.893 262.338,646.631 
			511.264,646.733 330.514,912.306 542.59,912.381 459.369,1044.916 557.01,912.381 		"/>
		<polygon fill="#FFBC00" points="910.863,463.394 622.127,463.251 899.26,84.893 794.848,84.893 558.865,463.251 847.621,463.394 
			556.035,809.43 818.959,813.832 459.369,1044.916 844.092,813.832 581.652,809.43 		"/>
		<polygon fill="#FFDE00" points="556.035,809.43 847.621,463.394 558.865,463.251 794.848,84.893 625.977,84.893 305.654,646.631 
			554.57,646.733 344.933,912.306 557.01,912.381 459.369,1044.916 818.959,813.832 		"/>
	</g>
</g>
</svg>
